<?xml version="1.0" standalone="no"?>
<!DOCTYPE svg PUBLIC "-//W3C//DTD SVG 20010904//EN"
 "http://www.w3.org/TR/2001/REC-SVG-20010904/DTD/svg10.dtd">
<svg version="1.0" xmlns="http://www.w3.org/2000/svg"
 width="360.000000pt" height="185.000000pt" viewBox="0 0 360.000000 185.000000"
 preserveAspectRatio="xMidYMid meet">

<g transform="translate(0.000000,185.000000) scale(0.100000,-0.100000)"
fill="#000000" stroke="none">
<path d="M3197 1824 c-25 -48 -117 -144 -137 -144 -15 0 -19 12 -25 70 -5 46
-11 70 -19 68 -6 -2 -27 -36 -46 -76 -41 -84 -38 -84 -181 -52 -64 15 -131 21
-227 22 -206 1 -355 -31 -512 -111 -13 -7 -15 -98 -18 -710 -2 -592 0 -701 12
-701 7 0 19 6 25 14 7 8 37 24 69 37 31 12 73 36 92 54 19 17 48 41 64 53 30
23 80 29 91 12 11 -17 82 -11 120 11 33 20 35 20 29 3 -4 -11 -11 -24 -17 -31
-5 -7 -10 -30 -10 -52 -2 -37 -3 -39 -32 -34 -25 4 -40 -2 -75 -32 -48 -40
-70 -86 -70 -151 0 -54 20 -73 61 -56 16 7 44 17 62 23 17 7 45 18 60 26 17 9
39 12 57 8 24 -5 43 2 105 40 41 26 75 50 75 54 0 16 84 101 101 101 27 0 50
42 55 102 3 48 21 128 44 201 5 16 7 34 4 42 -3 7 3 33 14 57 33 74 33 73 -11
116 -61 60 -91 68 -158 42 -83 -33 -199 -70 -220 -70 -17 0 -19 9 -19 85 0 50
-6 103 -16 131 l-16 46 29 30 c41 43 149 118 185 129 43 12 78 -7 94 -52 28
-84 56 -111 165 -165 57 -29 129 -62 159 -74 137 -55 159 -68 179 -108 25 -50
41 -55 110 -41 79 15 95 29 122 101 37 98 34 104 -106 258 -88 97 -145 199
-145 259 0 34 -8 48 -65 109 -107 115 -107 114 -91 154 21 50 58 198 54 217
-3 11 -9 7 -21 -15z m-382 -1240 c-15 -44 -42 -111 -61 -149 -19 -39 -34 -80
-34 -93 0 -16 -6 -22 -21 -22 -18 0 -20 4 -14 48 20 151 49 226 105 270 24 18
45 31 47 28 2 -2 -8 -39 -22 -82z"/>
<path d="M701 1491 c-9 -6 -10 -11 -2 -15 16 -10 15 -218 -1 -234 -9 -9 -3
-12 27 -12 30 0 36 3 27 12 -8 8 -12 53 -12 135 0 125 -4 136 -39 114z"/>
<path d="M453 1483 c15 -4 17 -18 17 -118 0 -98 -2 -115 -17 -124 -13 -8 10
-10 84 -11 l101 0 11 32 11 32 -22 -21 c-26 -24 -78 -37 -108 -28 -17 5 -20
15 -20 61 l0 54 37 0 c20 0 45 -7 55 -17 17 -15 18 -14 18 27 0 39 -2 42 -13
26 -9 -12 -28 -19 -53 -20 l-39 -1 -3 53 -3 52 50 0 c40 0 53 -4 65 -22 l16
-22 0 27 0 27 -102 -1 c-57 -1 -95 -3 -85 -6z"/>
<path d="M823 1390 c-32 -29 -38 -73 -16 -118 15 -31 24 -37 55 -40 27 -2 41
2 57 19 26 28 28 48 3 26 -32 -29 -69 -21 -91 20 -19 38 -14 43 49 43 66 0 77
13 40 50 -25 25 -70 26 -97 0z m65 -2 c24 -24 13 -38 -28 -38 -43 0 -49 9 -24
34 19 19 36 20 52 4z"/>
<path d="M972 1398 c9 -7 31 -48 49 -90 17 -43 35 -78 39 -78 4 0 19 33 35 73
15 39 35 80 43 90 14 16 13 17 -11 17 -19 0 -25 -4 -21 -15 6 -16 -24 -105
-36 -105 -4 0 -17 21 -28 47 -15 34 -17 51 -10 60 8 10 1 13 -33 13 -36 0 -40
-2 -27 -12z"/>
<path d="M1188 1399 c-19 -11 -25 -49 -8 -49 6 0 15 11 20 25 15 40 60 28 60
-16 0 -5 -17 -17 -38 -28 -55 -28 -68 -46 -54 -76 12 -26 44 -33 71 -16 9 6
21 5 32 -2 15 -9 22 -8 36 6 14 15 15 18 3 15 -12 -2 -16 10 -18 62 -2 35 -8
70 -14 77 -12 15 -66 17 -90 2z m72 -98 c0 -32 -22 -56 -45 -47 -20 7 -19 46
3 62 28 21 42 16 42 -15z"/>
<path d="M1378 1393 c-24 -29 -27 -49 -11 -73 13 -18 14 -27 4 -42 -7 -11 -9
-27 -6 -37 3 -10 -1 -24 -10 -31 -35 -29 -4 -60 59 -60 46 0 81 17 94 45 16
36 -5 56 -68 63 -62 8 -73 25 -20 30 44 4 70 27 70 62 0 17 7 31 18 35 13 6 7
10 -23 16 -63 12 -91 10 -107 -8z m73 -17 c24 -51 -14 -99 -49 -64 -13 13 -17
70 -5 81 14 15 44 6 54 -17z m27 -152 c27 -8 29 -30 3 -44 -22 -11 -71 -13
-95 -4 -16 6 -22 35 -9 47 8 9 70 9 101 1z"/>
<path d="M1573 1390 c-32 -29 -38 -73 -16 -118 15 -31 24 -37 55 -40 27 -2 41
2 57 19 26 28 28 48 3 26 -32 -29 -69 -21 -91 20 -19 38 -14 43 49 43 66 0 77
13 40 50 -25 25 -70 26 -97 0z m65 -2 c24 -24 13 -38 -28 -38 -43 0 -49 9 -24
34 19 19 36 20 52 4z"/>
<path d="M783 1033 c15 -4 17 -18 17 -118 0 -98 -3 -116 -17 -125 -14 -8 4
-10 72 -7 103 4 134 18 160 74 29 61 3 140 -56 170 -14 8 -59 12 -109 12 -47
-1 -77 -3 -67 -6z m158 -26 c43 -27 53 -126 18 -171 -21 -27 -71 -46 -101 -38
-16 4 -18 18 -18 112 0 77 4 110 13 113 16 7 66 -2 88 -16z"/>
<path d="M1083 940 c-32 -29 -38 -73 -16 -118 15 -31 24 -37 55 -40 27 -2 41
2 57 19 26 28 28 48 3 26 -32 -29 -69 -21 -91 20 -19 38 -14 43 49 43 66 0 77
13 40 50 -25 25 -70 26 -97 0z m65 -2 c24 -24 13 -38 -28 -38 -43 0 -49 9 -24
34 19 19 36 20 52 4z"/>
<path d="M1250 946 c-20 -25 -7 -59 35 -87 49 -33 54 -64 10 -64 -21 0 -33 7
-42 25 l-13 25 0 -32 c0 -32 1 -33 45 -33 36 0 48 5 60 24 21 32 11 52 -42 83
-28 16 -43 31 -41 42 5 23 36 26 59 5 18 -16 19 -16 19 4 0 19 -6 22 -39 22
-21 0 -44 -6 -51 -14z"/>
<path d="M1387 583 c-13 -12 -7 -33 8 -33 8 0 15 -9 15 -20 0 -11 -4 -20 -10
-20 -5 0 -10 -5 -10 -12 0 -6 9 -3 20 7 22 20 26 55 8 73 -14 14 -22 15 -31 5z"/>
<path d="M553 573 c15 -4 17 -18 17 -118 0 -98 -2 -115 -17 -124 -14 -8 -5
-10 37 -10 42 0 51 2 38 10 -13 7 -18 23 -18 59 l0 50 40 0 c48 0 80 27 80 68
0 54 -33 72 -127 71 -37 -1 -60 -3 -50 -6z m125 -31 c28 -36 1 -92 -45 -92
-21 0 -23 4 -23 53 0 30 3 57 7 60 10 10 46 -2 61 -21z"/>
<path d="M792 478 c-28 -31 -37 -72 -22 -109 19 -44 66 -62 115 -43 22 9 45
57 45 94 0 69 -91 107 -138 58z m83 -12 c20 -30 22 -100 5 -122 -34 -39 -80 8
-80 82 0 64 44 88 75 40z"/>
<path d="M982 478 c-28 -31 -37 -72 -22 -109 19 -44 66 -62 115 -43 22 9 45
57 45 94 0 69 -91 107 -138 58z m83 -12 c20 -30 22 -100 5 -122 -34 -39 -80 8
-80 82 0 64 44 88 75 40z"/>
<path d="M1161 491 c-9 -6 -10 -11 -2 -15 15 -10 14 -129 -1 -144 -9 -9 -2
-12 33 -12 35 1 40 3 27 11 -14 8 -18 23 -18 69 0 50 3 61 21 70 38 21 49 6
49 -69 0 -46 -4 -71 -12 -74 -7 -3 7 -5 32 -5 25 0 39 2 33 5 -8 3 -13 25 -13
61 0 32 -3 67 -6 80 -8 28 -49 40 -78 22 -14 -9 -21 -10 -24 -1 -4 13 -22 14
-41 2z"/>
<path d="M1480 486 c-20 -25 -7 -59 35 -87 49 -33 54 -64 10 -64 -21 0 -33 7
-42 25 l-13 25 0 -32 c0 -32 1 -33 45 -33 36 0 48 5 60 24 21 32 11 52 -42 83
-28 16 -43 31 -41 42 5 23 36 26 59 5 18 -16 19 -16 19 4 0 19 -6 22 -39 22
-21 0 -44 -6 -51 -14z"/>
</g>
</svg>
